<?xml version="1.0" encoding="utf-8"?>
<!-- Generator: Adobe Illustrator 28.0.0, SVG Export Plug-In . SVG Version: 6.00 Build 0)  -->
<svg version="1.1" id="Layer_1" xmlns="http://www.w3.org/2000/svg" xmlns:xlink="http://www.w3.org/1999/xlink" x="0px" y="0px"
	 width="165.9px" height="61.1px" viewBox="0 0 165.9 61.1" style="enable-background:new 0 0 165.9 61.1;" xml:space="preserve">
<style type="text/css">
	.st0{fill:#3F9BBE;}
	.st1{fill:#1F67A6;}
	.st2{fill:#A9ABAE;}
	.st3{fill:#232222;}
	.st4{fill:#054B7F;}
	.st5{fill:#FFFFFF;}
	.st6{fill:#A0A0A0;}
	.st7{fill:#202326;}
</style>
<path d="M2100.4,3157.8c-3.6,4.5-8.3,7.3-13.7,8.9c-2.7,0.8-5.3,0.1-6.8-2.6c-1.4-2.4-0.3-4.4,1.2-6.3
	C2088.5,3148.3,2090.9,3148.3,2100.4,3157.8z"/>
<g>
	<path class="st0" d="M-605.2-39.8c-6.6-5.3-14.7-8-22.2-11.7c2.2,7.8,2.9,15.9,2.9,24c-5.3-1.6-10.6-3.4-16-4.2
		c-13.1-2.6-25.2-5.1-38.5-4.3c-0.7,4.5-1.3,9-2,13.5c9.3,1,18.5,2.8,27.6,4.7c17.4,5,33.6,13,49.3,21.8
		C-602.3-10.4-597.8-26.4-605.2-39.8z"/>
	<g>
		<path class="st0" d="M-584.5-24.1c5.9,7.3,12.1,14.4,17,22.5C-562,6.3-566,16.9-561,25c8.8,15.7,17,34.4,11.5,52.6
			c-3-24.6-20.2-43.2-36.1-60.6C-583.1,3.4-581.5-10.4-584.5-24.1z"/>
	</g>
	<path class="st1" d="M-643.7,4.7l-41.3-14.2c-1.9,5.6-3.9,11.2-5.9,16.7c9.7,4.5,19.3,9.4,28.8,14.3c7,3.8,13.9,7.8,20.7,12
		c-7,16.2-15,31.9-24.2,47c7,5.9,14.2,11.4,21.9,16.3c13.9-23.3,25.6-48,33.9-73.9C-620.7,16.2-631.8,9.7-643.7,4.7z"/>
	<path class="st1" d="M-591.1,36.9c15.4,12.3,30,27,37.5,45.5c3.3,6.4-0.8,13.2-2.6,19.3c-7.5-8.3-14.8-16.9-23.3-24.4
		c-6.7,15.2-13.9,30.2-22.9,44.2c-7.6-3.8-15-7.8-22.5-11.9C-611,86.7-599.5,62.3-591.1,36.9z"/>
	<g>
		<path class="st2" d="M-302.3,59.4"/>
	</g>
	<g>
		<path class="st1" d="M-511,33.7V64h-9.6V-1.1h9.6v25.2h28.3V-1.1h9.6V64h-9.6V33.7H-511z"/>
		<path class="st1" d="M-424.4,64h-1.3c-9.3,0-17.3-3.3-23.9-9.9c-6.6-6.6-9.9-14.5-9.9-23.9c0-9.3,3.3-17.3,9.9-23.8
			c6.6-6.6,14.5-9.9,23.9-9.9c9.3,0,17.3,3.3,23.8,9.9c6.6,6.6,9.9,14.5,9.9,23.8c0,9.3-3.3,17.3-9.9,23.9c-1.3,1.3-3.2,2.9-6,4.9
			l11.4,5.5l-4.3,8.8l-15.7-7.6C-418.9,64.8-421.6,64.2-424.4,64z M-425.8,6.3c-6.6,0-12.3,2.3-17,7c-4.7,4.7-7,10.4-7,17
			c0,6.6,2.3,12.3,7,17c4.6,4.6,10.2,6.9,16.7,6.9h0.8c6.4,0,11.9-2.3,16.5-6.9c4.7-4.7,7-10.4,7-17c0-6.7-2.4-12.4-7.1-17
			C-413.5,8.6-419.2,6.3-425.8,6.3z"/>
		<path class="st1" d="M-378.2,0.9c6.6-3,14.1-4.5,22.4-4.5h0.3c4.8,0,9,1.7,12.4,5.1c3.4,3.4,5.2,7.5,5.2,12.3
			c0,3.4-1.1,6.9-3.4,10.5c2,1.4,3.5,2.6,4.5,3.6c4.1,4.1,6.2,9.1,6.2,15c0,5.8-2.1,10.8-6.2,15c-4.1,4.1-9,6.1-14.8,6.2l-26.7,0
			L-378.2,0.9z M-368.6,21.6h13.6c2-0.1,3.6-0.9,5.1-2.3c1.5-1.5,2.3-3.4,2.3-5.5c0-2.2-0.8-4-2.3-5.5c-1.5-1.5-3.4-2.3-5.6-2.3
			h-0.3c-5.3,0-9.6,0.9-12.8,2.6V21.6z M-368.6,31.2v23.1h16.9c3.3,0,6-1.1,8.2-3.3c2.2-2.2,3.4-5,3.4-8.2c0-3.2-1.1-5.9-3.4-8.2
			s-5-3.4-8.2-3.4L-368.6,31.2z"/>
	</g>
	<g>
		<path class="st1" d="M-302.3,7.9v7.2h-3V-1.2h3v6h6v-6h3v16.3h-3V7.9H-302.3z"/>
		<path class="st1" d="M-289.5,4.9h6v3h-6v3.6c0.9,0.4,2.9,0.6,6,0.6v3c-4.4,0-7.4-0.4-9.1-1.2V-1.2h9.1v3h-6V4.9z"/>
		<path class="st1" d="M-279.7,8.5l0,6.7h-3V4.3c0-1.7,0.6-3.1,1.8-4.3c1.2-1.2,2.6-1.8,4.3-1.8c1.4,0,3.3,0.4,5.7,1.2v15.7h-3V8.5
			H-279.7z M-274,5.5V1.8c-0.7-0.4-1.4-0.6-2.3-0.6c-0.1,0-0.2,0-0.3,0c-0.8,0-1.6,0.3-2.1,0.9c-0.6,0.6-0.9,1.3-0.9,2.1v1.2H-274z"
			/>
		<path class="st1" d="M-261.2,15.1c-4.4,0-7.4-0.4-9.1-1.2V-1.2h3v12.7c0.9,0.4,2.9,0.6,6,0.6V15.1z"/>
		<path class="st1" d="M-256.6,1.8v13.3h-3V1.8h-3.6v-3h10.3v3H-256.6z"/>
		<path class="st1" d="M-249.3,7.9v7.2h-3V-1.2h3v6h6v-6h3v16.3h-3V7.9H-249.3z"/>
		<path class="st1" d="M-296.5,39.9h-0.3c-2.3,0-4.3-0.8-6-2.5c-1.7-1.7-2.5-3.6-2.5-6c0-2.3,0.8-4.3,2.5-6s3.6-2.5,6-2.5
			c2.3,0,4.3,0.8,6,2.5c1.7,1.7,2.5,3.6,2.5,6c0,2.3-0.8,4.3-2.5,6c-0.3,0.3-0.6,0.6-1,0.9l2.5,1.2l-1.3,2.8l-4.1-2
			C-295.3,40-295.9,39.9-296.5,39.9z M-296.9,26c-1.5,0-2.8,0.5-3.8,1.6c-1.1,1.1-1.6,2.3-1.6,3.8c0,1.5,0.5,2.8,1.6,3.8
			c1,1,2.3,1.5,3.8,1.5h0.2c1.4,0,2.7-0.5,3.7-1.5c1.1-1.1,1.6-2.3,1.6-3.8c0-1.5-0.5-2.8-1.6-3.8C-294.1,26.5-295.4,26-296.9,26z"
			/>
		<path class="st1" d="M-284.6,33.5c0,0.9,0.3,1.7,1,2.3c0.7,0.6,1.4,1,2.4,1s1.7-0.3,2.3-1c0.6-0.6,1-1.4,1-2.3v-10h3v10
			c0,1.7-0.6,3.2-1.9,4.5s-2.7,1.9-4.5,1.9c-1.8,0-3.3-0.6-4.5-1.9c-1.2-1.2-1.8-2.7-1.8-4.5v-10h3V33.5z"/>
		<path class="st1" d="M-271.2,29.6h6v3h-6v3.6c0.9,0.4,2.9,0.6,6,0.6v3c-4.4,0-7.4-0.4-9.1-1.2V23.6h9.1v3h-6V29.6z"/>
		<path class="st1" d="M-255.2,31c1,1,1.5,2.2,1.5,3.7c0,1.4-0.5,2.6-1.5,3.6c-1,1-2.4,1.5-4.2,1.5c-0.7,0-1.3,0-1.8-0.1
			c-0.4-0.1-1.5-0.3-3.3-0.5l0.7-3.1c2,0.4,3.1,0.7,3.4,0.7c0.3,0,0.6,0,1,0c1,0,1.7-0.2,2.1-0.6c0.4-0.4,0.6-0.9,0.6-1.5
			c0-0.6-0.2-1.1-0.6-1.5c-0.2-0.2-0.5-0.4-0.8-0.5l-3-0.9c-0.6-0.2-1.2-0.6-1.8-1.1c-0.9-0.9-1.3-2-1.3-3.2c0-1.2,0.4-2.3,1.3-3.2
			c0.9-0.9,2-1.3,3.5-1.3c0.5,0,1.1,0,1.6,0.1s1.6,0.2,3.3,0.5l-0.7,3c-1.9-0.4-3.1-0.6-3.4-0.6c-0.3,0-0.6,0-0.8,0
			c-0.6,0-1.1,0.1-1.3,0.4s-0.4,0.7-0.4,1.1c0,0.4,0.1,0.8,0.4,1.1c0.2,0.2,0.4,0.3,0.6,0.4l3,0.9C-256.4,30.1-255.7,30.5-255.2,31z
			"/>
		<path class="st1" d="M-247.2,26.6v13.3h-3V26.6h-3.6v-3h10.3v3H-247.2z"/>
		<path class="st1" d="M-305.3,48.9c1.8-0.8,3.7-1.2,5.7-1.2h0.1c1.3,0,2.3,0.4,3.2,1.3c0.9,0.9,1.3,2,1.3,3.2
			c0,0.9-0.2,1.7-0.7,2.4c0.3,0.2,0.6,0.4,0.8,0.7c1.1,1.1,1.6,2.3,1.6,3.8c0,1.5-0.5,2.8-1.6,3.8c-1.1,1-2.3,1.6-3.8,1.6l-6.8,0
			L-305.3,48.9z M-302.3,53.7h2.9c0.4,0,0.7-0.2,1-0.4c0.3-0.3,0.4-0.6,0.4-1.1c0-0.4-0.1-0.8-0.4-1.1c-0.3-0.3-0.7-0.4-1.1-0.4
			h-0.1c-1.2,0-2.1,0.2-2.7,0.7V53.7z M-302.2,56.7v4.8l3.6,0c0.7,0,1.2-0.2,1.7-0.7s0.7-1,0.7-1.7c0-0.7-0.2-1.2-0.7-1.7
			s-1-0.7-1.7-0.7L-302.2,56.7z"/>
		<path class="st1" d="M-289.4,48.3v16.3h-3V48.3H-289.4z"/>
		<path class="st1" d="M-279.6,64.6c-4.4,0-7.4-0.4-9.1-1.2V48.3h3V61c0.9,0.4,2.9,0.6,6,0.6V64.6z"/>
		<path class="st1" d="M-269.9,64.6c-4.4,0-7.4-0.4-9.1-1.2V48.3h3V61c0.9,0.4,2.9,0.6,6,0.6V64.6z"/>
		<path class="st1" d="M-266.1,48.3v16.3h-3V48.3H-266.1z"/>
		<path class="st1" d="M-262.4,55.6v9h-3V48.4l9.1,9v-9h3v16.3L-262.4,55.6z"/>
		<path class="st1" d="M-238.1,62.6l-2.4,1.3c-1.1,0.5-2.3,0.8-3.6,0.8c-2.3,0-4.3-0.8-6-2.5c-1.7-1.7-2.5-3.6-2.5-6
			c0-2.3,0.8-4.3,2.5-6c1.7-1.7,3.6-2.5,6-2.5c1.2,0,2.4,0.2,3.4,0.7l2.6,1.3l-1.3,2.8l-2.6-1.3c-0.7-0.3-1.4-0.4-2.1-0.4
			c-1.5,0-2.8,0.5-3.8,1.6c-1.1,1.1-1.6,2.3-1.6,3.8c0,1.5,0.5,2.8,1.6,3.8c1.1,1.1,2.3,1.6,3.8,1.6c0.8,0,1.6-0.2,2.3-0.5l0.7-0.4
			v-4h-2.4v-3h5.4V62.6z"/>
	</g>
	<rect x="-320.4" y="-17.3" class="st0" width="1.1" height="102.6"/>
</g>
<g>
	<g>
		<path class="st1" d="M280.8,29.8v6.2h-2.6V22h2.6v5.2h5.2V22h2.6v14H286v-6.2H280.8z"/>
		<path class="st1" d="M295.2,36.1c-1.4,0-2.7-0.5-3.7-1.5c-1-1-1.5-2.2-1.5-3.7s0.5-2.7,1.5-3.7c1-1,2.2-1.5,3.7-1.5
			s2.7,0.5,3.7,1.5c0.8,0.8,1.2,1.7,1.4,2.7l-2.5,1.2v0l-4.1,2c0.3,0.2,0.6,0.3,1,0.4v0c0.2,0,0.4,0.1,0.6,0.1
			c0.7,0,1.6-0.3,2.6-0.9l1.1,2.4C297.6,35.7,296.4,36.1,295.2,36.1z M296.9,28.9c-0.6-0.4-1.1-0.6-1.7-0.6c-0.7,0-1.3,0.3-1.8,0.8
			c-0.4,0.4-0.6,1-0.6,1.8v0.1L296.9,28.9z"/>
		<path class="st1" d="M309.2,35.1c-0.8,0.6-1.6,0.9-2.6,0.9c-1.4,0-2.7-0.5-3.7-1.5c-1-1-1.5-2.2-1.5-3.7s0.5-2.7,1.5-3.7
			c1-1,2.2-1.5,3.7-1.5c1.4,0,3.2,0.7,5.2,2.1v8.3h-2.6V35.1z M308.5,32.7c0.5-0.5,0.8-1.1,0.8-1.8v-1.7c-1-0.6-1.9-0.9-2.6-0.9
			c-0.7,0-1.3,0.3-1.8,0.8c-0.5,0.5-0.8,1.1-0.8,1.8c0,0.7,0.3,1.3,0.8,1.8c0.5,0.5,1.1,0.8,1.8,0.8C307.4,33.5,308,33.2,308.5,32.7
			z"/>
		<path class="st1" d="M315.9,22l0,14h-2.6l0-14H315.9z"/>
		<path class="st1" d="M320.5,28.2l0,4.3c0.8,0.6,1.8,0.9,3.1,0.9v2.6c-2.4,0-4.3-0.7-5.7-2.1l0-5.7h-0.5v-2.6h0.5V22h2.6v3.6h3.1
			v2.6H320.5z"/>
		<path class="st1" d="M327.7,26.4c0.7-0.5,1.4-0.7,2.1-0.7c1.4,0,2.6,0.4,3.4,1.3c0.8,0.9,1.3,2,1.3,3.5l0,5.6l-2.6,0l0-5.7
			c0-0.7-0.2-1.3-0.5-1.6c-0.3-0.3-0.9-0.5-1.6-0.5c-0.6,0-1.3,0.3-2.1,0.9V36h-2.6l0-14h2.6L327.7,26.4z"/>
		<path class="st1" d="M348.5,36.1h-0.3c-2,0-3.7-0.7-5.2-2.1c-1.4-1.4-2.1-3.1-2.1-5.2c0-2,0.7-3.7,2.1-5.2
			c1.4-1.4,3.1-2.1,5.2-2.1c2,0,3.7,0.7,5.2,2.1c1.4,1.4,2.1,3.1,2.1,5.2c0,2-0.7,3.7-2.1,5.2c-0.3,0.3-0.6,0.5-0.9,0.7l2.2,1.1
			l-1.2,2.4l-3.5-1.7C349.6,36.2,349,36.1,348.5,36.1z M348.2,24.1c-1.3,0-2.4,0.5-3.3,1.4c-0.9,0.9-1.4,2-1.4,3.3
			c0,1.3,0.5,2.4,1.4,3.3c0.9,0.9,2,1.3,3.2,1.3h0.2c1.2,0,2.3-0.4,3.2-1.3c0.9-0.9,1.4-2,1.4-3.3c0-1.3-0.5-2.4-1.4-3.3
			C350.6,24.6,349.5,24.1,348.2,24.1z"/>
		<path class="st1" d="M359.6,31.3L359.6,31.3c0,0.8,0.2,1.3,0.5,1.7c0.3,0.3,0.9,0.5,1.6,0.5c0.6,0,1.3-0.3,2.1-0.9l0-6.9h2.6
			l0,8.3c-1.4,1.4-3,2.1-4.7,2.1c-1.4,0-2.6-0.4-3.4-1.3c-0.8-0.9-1.3-2-1.2-3.5v-5.6h2.6V31.3z"/>
		<path class="st1" d="M373,36.1c-1.4,0-2.7-0.5-3.7-1.5c-1-1-1.5-2.2-1.5-3.7s0.5-2.7,1.5-3.7c1-1,2.2-1.5,3.7-1.5
			c1.4,0,2.7,0.5,3.7,1.5c0.8,0.8,1.2,1.7,1.4,2.7l-2.5,1.2v0l-4.1,2c0.3,0.2,0.6,0.3,1,0.4v0c0.2,0,0.4,0.1,0.6,0.1
			c0.7,0,1.6-0.3,2.6-0.9l1.1,2.4C375.4,35.7,374.1,36.1,373,36.1z M374.7,28.9c-0.6-0.4-1.1-0.6-1.7-0.6c-0.7,0-1.3,0.3-1.8,0.8
			c-0.4,0.4-0.6,1-0.6,1.8v0.1L374.7,28.9z"/>
		<path class="st1" d="M383.7,32.3c-0.4-0.2-1.2-0.4-2.3-0.7c-0.4-0.1-0.8-0.4-1.2-0.7c-0.6-0.6-0.9-1.3-0.9-2.2
			c0-0.8,0.3-1.6,0.9-2.2c0.6-0.6,1.4-1,2.4-1.1c0.2,0,0.5,0,0.7,0c0.8,0,1.8,0.1,2.9,0.4l-0.6,2.5c-0.9-0.3-1.6-0.4-2.1-0.4h-0.1
			c-0.6,0-1.1,0.1-1.3,0.2c-0.2,0.2-0.3,0.3-0.3,0.6v0c0,0.2,0.1,0.3,0.4,0.4c0.4,0.2,1.2,0.4,2.3,0.7c0.4,0.2,0.8,0.4,1.1,0.7
			c0.6,0.6,0.9,1.3,0.9,2.2c0,0.8-0.3,1.6-0.9,2.2c-0.6,0.6-1.4,0.9-2.4,1.1c-0.2,0-0.4,0-0.6,0c-0.9,0-2.1-0.2-3.5-0.6l0.6-2.4
			c1.2,0.4,2.1,0.6,2.7,0.6h0.2c0.5,0,0.8-0.1,1-0.2c0.2-0.2,0.4-0.4,0.4-0.6v0C384,32.6,383.9,32.4,383.7,32.3z"/>
		<path class="st1" d="M390.8,28.2l0,4.3c0.8,0.6,1.8,0.9,3.1,0.9v2.6c-2.4,0-4.3-0.7-5.7-2.1l0-5.7h-0.5v-2.6h0.5V22h2.6v3.6h3.1
			v2.6H390.8z"/>
	</g>
	<g>
		<path class="st3" d="M277.8,54.8V42.7h2.3c0.3,0,0.7,0,1.1,0c0.4,0,0.8,0,1.2,0.1c0.4,0.1,0.8,0.1,1.1,0.2c0.4,0.1,0.7,0.3,1,0.5
			c0.3,0.2,0.5,0.5,0.7,0.8c0.2,0.3,0.2,0.7,0.2,1.2c0,0.4-0.1,0.7-0.2,1.1c-0.1,0.3-0.3,0.6-0.6,0.9c-0.2,0.3-0.5,0.5-0.9,0.6
			c-0.3,0.2-0.7,0.3-1.1,0.4c0.5,0,0.9,0.1,1.3,0.2c0.4,0.1,0.8,0.3,1,0.6c0.3,0.3,0.5,0.6,0.7,0.9c0.2,0.4,0.2,0.8,0.2,1.2
			c0,0.4-0.1,0.9-0.2,1.3c-0.2,0.4-0.4,0.7-0.7,1.1c-0.3,0.3-0.7,0.5-1.2,0.7c-0.5,0.2-1.1,0.3-1.7,0.3H277.8z M278.8,49v4.9h2.6
			c1.1,0,1.9-0.2,2.5-0.6c0.6-0.4,0.9-1,0.9-1.8c0-0.5-0.1-0.9-0.3-1.2s-0.4-0.6-0.8-0.8c-0.3-0.2-0.7-0.3-1.2-0.4
			c-0.5-0.1-1-0.1-1.7-0.1H278.8z M278.9,48.1h1.9c0.4,0,0.9,0,1.3-0.1c0.4-0.1,0.8-0.2,1.1-0.4c0.3-0.2,0.6-0.4,0.8-0.7
			c0.2-0.3,0.3-0.7,0.3-1.1c0-0.4-0.1-0.8-0.3-1.1c-0.2-0.3-0.4-0.5-0.7-0.7c-0.3-0.2-0.7-0.3-1.1-0.3c-0.4-0.1-0.9-0.1-1.4-0.1h-2
			V48.1z"/>
		<path class="st3" d="M288.7,46.3h1v8.5h-1V46.3z M289.8,42.5v1h-1v-1H289.8z"/>
		<path class="st3" d="M293.9,42.3v12.5h-1V42.3H293.9z"/>
		<path class="st3" d="M298.1,42.3v12.5h-1V42.3H298.1z"/>
		<path class="st3" d="M301.3,46.3h1v8.5h-1V46.3z M302.3,42.5v1h-1v-1H302.3z"/>
		<path class="st3" d="M306.4,54.8h-1v-6.5l-0.1-2h1.1l0,1.7c0.7-1.3,1.7-1.9,3.2-1.9c0.4,0,0.8,0,1.1,0.1c0.3,0.1,0.6,0.2,0.8,0.4
			c0.2,0.2,0.4,0.4,0.6,0.6c0.1,0.2,0.3,0.5,0.3,0.8c0.1,0.3,0.1,0.5,0.2,0.8c0,0.3,0,0.6,0,0.9c0,0.1,0,0.4,0,0.8
			c0,0.4,0,0.9,0,1.5v2.8h-1v-4.5c0-0.3,0-0.5,0-0.7c0-0.2,0-0.3,0-0.3c0-0.8-0.2-1.4-0.6-1.8s-0.9-0.6-1.6-0.6
			c-0.3,0-0.6,0-0.9,0.1c-0.3,0.1-0.5,0.2-0.7,0.3c-0.2,0.1-0.4,0.3-0.6,0.5c-0.2,0.2-0.3,0.3-0.4,0.5c-0.1,0.2-0.2,0.4-0.3,0.5
			c-0.1,0.2-0.1,0.3-0.1,0.5V54.8z"/>
		<path class="st3" d="M321.9,46.3h1v2v5.4c0,0.4,0,0.8-0.1,1.2c0,0.4-0.1,0.7-0.2,1.1c-0.1,0.4-0.3,0.7-0.5,1
			c-0.2,0.3-0.5,0.6-0.8,0.8s-0.7,0.4-1.2,0.5c-0.5,0.1-1,0.2-1.7,0.2c-0.5,0-1.1-0.1-1.5-0.2c-0.5-0.1-1-0.3-1.4-0.5l0.1-1
			c0.4,0.2,0.8,0.4,1.3,0.5c0.5,0.1,0.9,0.2,1.4,0.2c1.1,0,1.9-0.2,2.5-0.7c0.6-0.5,0.9-1.2,0.9-2.3l0-1.8c-0.3,0.7-0.8,1.2-1.3,1.6
			c-0.6,0.3-1.2,0.5-1.9,0.5c-0.6,0-1.1-0.1-1.6-0.3c-0.5-0.2-0.9-0.5-1.2-0.9c-0.3-0.4-0.6-0.8-0.7-1.3c-0.2-0.5-0.3-1.1-0.3-1.7
			c0-0.6,0.1-1.2,0.2-1.7c0.2-0.5,0.4-1,0.7-1.4c0.3-0.4,0.7-0.7,1.2-1c0.5-0.2,1.1-0.4,1.7-0.4c0.4,0,0.7,0,1,0.1
			c0.3,0.1,0.6,0.2,0.8,0.4c0.3,0.2,0.5,0.4,0.7,0.6c0.2,0.2,0.4,0.5,0.6,0.8L321.9,46.3z M321.9,50.2c0-0.5-0.1-0.9-0.2-1.3
			c-0.1-0.4-0.3-0.8-0.6-1.1c-0.3-0.3-0.6-0.5-0.9-0.7c-0.4-0.2-0.8-0.3-1.2-0.3c-0.5,0-0.9,0.1-1.3,0.3c-0.4,0.2-0.7,0.5-0.9,0.8
			c-0.3,0.3-0.4,0.7-0.6,1.2c-0.1,0.4-0.2,0.9-0.2,1.4c0,0.5,0.1,1,0.2,1.4c0.1,0.4,0.3,0.8,0.5,1.1c0.2,0.3,0.5,0.5,0.9,0.7
			c0.4,0.2,0.9,0.2,1.4,0.2c0.4,0,0.7,0,1-0.1c0.3-0.1,0.5-0.2,0.8-0.4c0.2-0.2,0.4-0.4,0.6-0.6c0.2-0.2,0.3-0.5,0.4-0.8
			c0.1-0.3,0.2-0.6,0.2-0.9S321.9,50.5,321.9,50.2z"/>
	</g>
	<g>
		<path class="st1" d="M267.2,10.3c0-4.4,3.8-7.9,8.1-8.1c0.2,2.7,0.1,5.4,0.1,8.1C272.6,10.2,269.9,10.2,267.2,10.3z"/>
		<path class="st1" d="M267.2,18.3c2.7,0,5.4,0,8.1,0c-0.1,3.7,0.2,7.3-0.2,11c-0.9,5.5-5.8,10.1-11.4,10.5c-3.6,0.2-7.2,0-10.9,0.1
			c0-2.7,0-5.3,0-8c3-0.1,6,0.1,9,0c2.7,0,5.1-2.3,5.3-4.9C267.4,24,267.1,21.2,267.2,18.3z"/>
		<path class="st1" d="M236.9,39.9c-0.2-4.3,3.7-8.1,8-8.1c0,2.7,0,5.4,0,8C242.2,39.9,239.5,39.8,236.9,39.9z"/>
		<g>
			<path class="st0" d="M245.6,18.7c1.7-4.6,6.1-8,11-8.3c3.5-0.2,7.1,0,10.6-0.1c0,2.7,0,5.4,0,8.1c-3.1,0.1-6.2-0.1-9.3,0.1
				c-2.5,0.2-4.7,2.4-4.9,4.9c-0.2,2.8,0,5.7-0.1,8.5c-2.7,0-5.4,0-8.1,0C245.1,27.5,244.2,22.9,245.6,18.7z"/>
			<path class="st0" d="M275.4,10.3c2.7,0,5.4,0,8.1,0c0,4.3-3.8,8.1-8.1,8.1C275.4,15.7,275.4,13,275.4,10.3z"/>
			<path class="st0" d="M244.8,39.9c2.7,0,5.4,0,8.1,0c-0.1,3.1,0.1,6.3-0.1,9.4c-0.5,3.9-4.2,6.7-7.9,6.8
				C244.8,50.7,244.9,45.3,244.8,39.9z"/>
		</g>
		<path class="st4" d="M267.2,10.3c2.7,0,5.4,0,8.2,0c0,2.7,0,5.4,0,8.1c-2.7-0.1-5.4,0-8.1,0C267.2,15.6,267.2,13,267.2,10.3z"/>
		<path class="st4" d="M244.8,31.8c2.7,0.1,5.4,0,8.1,0c0,2.7,0,5.3,0,8c-2.7,0-5.4,0-8.1,0C244.8,37.2,244.8,34.5,244.8,31.8z"/>
	</g>
</g>
<g>
	<g>
		<path class="st5" d="M48.3,30.1v6.2h-2.6v-14h2.6v5.2h5.2v-5.2h2.6v14h-2.6v-6.2H48.3z"/>
		<path class="st5" d="M62.8,36.3c-1.4,0-2.7-0.5-3.7-1.5c-1-1-1.5-2.2-1.5-3.7c0-1.4,0.5-2.7,1.5-3.7c1-1,2.2-1.5,3.7-1.5
			c1.4,0,2.7,0.5,3.7,1.5c0.8,0.8,1.2,1.7,1.4,2.7l-2.5,1.2v0l-4.1,2c0.3,0.2,0.6,0.3,1,0.4v0c0.2,0,0.4,0.1,0.6,0.1
			c0.7,0,1.6-0.3,2.6-0.9l1.1,2.4C65.1,35.9,63.9,36.3,62.8,36.3z M64.5,29.2c-0.6-0.4-1.1-0.6-1.7-0.6c-0.7,0-1.3,0.3-1.8,0.8
			c-0.4,0.4-0.6,1-0.6,1.8v0.1L64.5,29.2z"/>
		<path class="st5" d="M76.8,35.4c-0.8,0.6-1.6,0.9-2.6,0.9c-1.4,0-2.7-0.5-3.7-1.5c-1-1-1.5-2.2-1.5-3.7c0-1.4,0.5-2.7,1.5-3.7
			c1-1,2.2-1.5,3.7-1.5s3.2,0.7,5.2,2.1v8.3h-2.6V35.4z M76,33c0.5-0.5,0.8-1.1,0.8-1.8v-1.7c-1-0.6-1.9-0.9-2.6-0.9
			c-0.7,0-1.3,0.3-1.8,0.8c-0.5,0.5-0.8,1.1-0.8,1.8c0,0.7,0.3,1.3,0.8,1.8c0.5,0.5,1.1,0.8,1.8,0.8C74.9,33.7,75.5,33.5,76,33z"/>
		<path class="st5" d="M83.5,22.3l0,14h-2.6l0-14H83.5z"/>
		<path class="st5" d="M88.1,28.5l0,4.3c0.8,0.6,1.8,0.9,3.1,0.9v2.6c-2.4,0-4.3-0.7-5.7-2.1l0-5.7h-0.5v-2.6h0.5v-3.6h2.6v3.6h3.1
			v2.6H88.1z"/>
		<path class="st5" d="M95.3,26.6c0.7-0.5,1.4-0.7,2.1-0.7c1.4,0,2.6,0.4,3.4,1.3c0.8,0.9,1.3,2,1.3,3.5l0,5.6l-2.6,0l0-5.7
			c0-0.7-0.2-1.3-0.5-1.6c-0.3-0.3-0.9-0.5-1.6-0.5c-0.6,0-1.3,0.3-2.1,0.9v6.9h-2.6l0-14h2.6L95.3,26.6z"/>
		<path class="st5" d="M116,36.3h-0.3c-2,0-3.7-0.7-5.2-2.1c-1.4-1.4-2.1-3.1-2.1-5.2c0-2,0.7-3.7,2.1-5.2c1.4-1.4,3.1-2.1,5.2-2.1
			c2,0,3.7,0.7,5.2,2.1c1.4,1.4,2.1,3.1,2.1,5.2c0,2-0.7,3.7-2.1,5.2c-0.3,0.3-0.6,0.5-0.9,0.7l2.2,1.1l-1.2,2.4l-3.5-1.7
			C117.1,36.5,116.6,36.4,116,36.3z M115.8,24.4c-1.3,0-2.4,0.5-3.3,1.4c-0.9,0.9-1.4,2-1.4,3.3c0,1.3,0.5,2.4,1.4,3.3
			c0.9,0.9,2,1.3,3.2,1.3h0.2c1.2,0,2.3-0.4,3.2-1.3c0.9-0.9,1.4-2,1.4-3.3c0-1.3-0.5-2.4-1.4-3.3C118.1,24.8,117.1,24.4,115.8,24.4
			z"/>
		<path class="st5" d="M127.1,31.5L127.1,31.5c0,0.8,0.2,1.3,0.5,1.7c0.3,0.3,0.9,0.5,1.6,0.5c0.6,0,1.3-0.3,2.1-0.9l0-6.9h2.6
			l0,8.3c-1.4,1.4-3,2.1-4.7,2.1c-1.4,0-2.6-0.4-3.4-1.3c-0.8-0.9-1.3-2-1.2-3.5v-5.6h2.6V31.5z"/>
		<path class="st5" d="M140.6,36.3c-1.4,0-2.7-0.5-3.7-1.5c-1-1-1.5-2.2-1.5-3.7c0-1.4,0.5-2.7,1.5-3.7c1-1,2.2-1.5,3.7-1.5
			c1.4,0,2.7,0.5,3.7,1.5c0.8,0.8,1.2,1.7,1.4,2.7l-2.5,1.2v0l-4.1,2c0.3,0.2,0.6,0.3,1,0.4v0c0.2,0,0.4,0.1,0.6,0.1
			c0.7,0,1.6-0.3,2.6-0.9l1.1,2.4C142.9,35.9,141.7,36.3,140.6,36.3z M142.2,29.2c-0.6-0.4-1.1-0.6-1.7-0.6c-0.7,0-1.3,0.3-1.8,0.8
			c-0.4,0.4-0.6,1-0.6,1.8v0.1L142.2,29.2z"/>
		<path class="st5" d="M151.3,32.6c-0.4-0.2-1.2-0.4-2.3-0.7c-0.4-0.1-0.8-0.4-1.2-0.7c-0.6-0.6-0.9-1.3-0.9-2.2
			c0-0.8,0.3-1.6,0.9-2.2c0.6-0.6,1.4-1,2.4-1.1c0.2,0,0.5,0,0.7,0c0.8,0,1.8,0.1,2.9,0.4l-0.6,2.5c-0.9-0.3-1.6-0.4-2.1-0.4h-0.1
			c-0.6,0-1.1,0.1-1.3,0.2c-0.2,0.2-0.3,0.3-0.3,0.6v0c0,0.2,0.1,0.3,0.4,0.4c0.4,0.2,1.2,0.4,2.3,0.7c0.4,0.2,0.8,0.4,1.1,0.7
			c0.6,0.6,0.9,1.3,0.9,2.2c0,0.8-0.3,1.6-0.9,2.2c-0.6,0.6-1.4,0.9-2.4,1.1c-0.2,0-0.4,0-0.6,0c-0.9,0-2.1-0.2-3.5-0.6l0.6-2.4
			c1.2,0.4,2.1,0.6,2.7,0.6h0.2c0.5,0,0.8-0.1,1-0.2c0.2-0.2,0.4-0.4,0.4-0.6v0C151.5,32.8,151.4,32.7,151.3,32.6z"/>
		<path class="st5" d="M158.4,28.5l0,4.3c0.8,0.6,1.8,0.9,3.1,0.9v2.6c-2.4,0-4.3-0.7-5.7-2.1l0-5.7h-0.5v-2.6h0.5v-3.6h2.6v3.6h3.1
			v2.6H158.4z"/>
	</g>
	<g>
		<path class="st5" d="M45.3,55.1V43h2.3c0.3,0,0.7,0,1.1,0c0.4,0,0.8,0,1.2,0.1c0.4,0.1,0.8,0.1,1.1,0.2c0.4,0.1,0.7,0.3,1,0.5
			c0.3,0.2,0.5,0.5,0.7,0.8c0.2,0.3,0.2,0.7,0.2,1.2c0,0.4-0.1,0.7-0.2,1.1c-0.1,0.3-0.3,0.6-0.6,0.9c-0.2,0.3-0.5,0.5-0.9,0.6
			c-0.3,0.2-0.7,0.3-1.1,0.4c0.5,0,0.9,0.1,1.3,0.2c0.4,0.1,0.8,0.3,1,0.6c0.3,0.3,0.5,0.6,0.7,0.9c0.2,0.4,0.2,0.8,0.2,1.2
			c0,0.4-0.1,0.9-0.2,1.3c-0.2,0.4-0.4,0.7-0.7,1.1c-0.3,0.3-0.7,0.5-1.2,0.7c-0.5,0.2-1.1,0.3-1.7,0.3H45.3z M46.4,49.3v4.9H49
			c1.1,0,1.9-0.2,2.5-0.6c0.6-0.4,0.9-1,0.9-1.8c0-0.5-0.1-0.9-0.3-1.2c-0.2-0.3-0.4-0.6-0.8-0.8s-0.7-0.3-1.2-0.4
			c-0.5-0.1-1-0.1-1.7-0.1H46.4z M46.4,48.3h1.9c0.4,0,0.9,0,1.3-0.1c0.4-0.1,0.8-0.2,1.1-0.4c0.3-0.2,0.6-0.4,0.8-0.7
			c0.2-0.3,0.3-0.7,0.3-1.1c0-0.4-0.1-0.8-0.3-1.1c-0.2-0.3-0.4-0.5-0.7-0.7c-0.3-0.2-0.7-0.3-1.1-0.3c-0.4-0.1-0.9-0.1-1.4-0.1h-2
			V48.3z"/>
		<path class="st5" d="M56.3,46.6h1v8.5h-1V46.6z M57.3,42.8v1h-1v-1H57.3z"/>
		<path class="st5" d="M61.5,42.6v12.5h-1V42.6H61.5z"/>
		<path class="st5" d="M65.7,42.6v12.5h-1V42.6H65.7z"/>
		<path class="st5" d="M68.8,46.6h1v8.5h-1V46.6z M69.8,42.8v1h-1v-1H69.8z"/>
		<path class="st5" d="M74,55.1h-1v-6.5l-0.1-2H74l0,1.7c0.7-1.3,1.7-1.9,3.2-1.9c0.4,0,0.8,0,1.1,0.1c0.3,0.1,0.6,0.2,0.8,0.4
			c0.2,0.2,0.4,0.4,0.6,0.6c0.1,0.2,0.3,0.5,0.3,0.8c0.1,0.3,0.1,0.5,0.2,0.8c0,0.3,0,0.6,0,0.9c0,0.1,0,0.4,0,0.8
			c0,0.4,0,0.9,0,1.5v2.8h-1v-4.5c0-0.3,0-0.5,0-0.7c0-0.2,0-0.3,0-0.3c0-0.8-0.2-1.4-0.6-1.8c-0.4-0.4-0.9-0.6-1.6-0.6
			c-0.3,0-0.6,0-0.9,0.1c-0.3,0.1-0.5,0.2-0.7,0.3c-0.2,0.1-0.4,0.3-0.6,0.5c-0.2,0.2-0.3,0.3-0.4,0.5c-0.1,0.2-0.2,0.4-0.3,0.5
			C74,49.3,74,49.4,74,49.6V55.1z"/>
		<path class="st5" d="M89.5,46.6h1v2V54c0,0.4,0,0.8-0.1,1.2c0,0.4-0.1,0.7-0.2,1.1c-0.1,0.4-0.3,0.7-0.5,1
			c-0.2,0.3-0.5,0.6-0.8,0.8c-0.3,0.2-0.7,0.4-1.2,0.5c-0.5,0.1-1,0.2-1.7,0.2c-0.5,0-1.1-0.1-1.5-0.2c-0.5-0.1-1-0.3-1.4-0.5l0.1-1
			c0.4,0.2,0.8,0.4,1.3,0.5c0.5,0.1,0.9,0.2,1.4,0.2c1.1,0,1.9-0.2,2.5-0.7c0.6-0.5,0.9-1.2,0.9-2.3l0-1.8c-0.3,0.7-0.8,1.2-1.3,1.6
			c-0.6,0.3-1.2,0.5-1.9,0.5c-0.6,0-1.1-0.1-1.6-0.3c-0.5-0.2-0.9-0.5-1.2-0.9c-0.3-0.4-0.6-0.8-0.7-1.3c-0.2-0.5-0.3-1.1-0.3-1.7
			c0-0.6,0.1-1.2,0.2-1.7c0.2-0.5,0.4-1,0.7-1.4c0.3-0.4,0.7-0.7,1.2-1c0.5-0.2,1.1-0.4,1.7-0.4c0.4,0,0.7,0,1,0.1
			c0.3,0.1,0.6,0.2,0.8,0.4c0.3,0.2,0.5,0.4,0.7,0.6c0.2,0.2,0.4,0.5,0.6,0.8L89.5,46.6z M89.5,50.5c0-0.5-0.1-0.9-0.2-1.3
			c-0.1-0.4-0.3-0.8-0.6-1.1c-0.3-0.3-0.6-0.5-0.9-0.7c-0.4-0.2-0.8-0.3-1.2-0.3c-0.5,0-0.9,0.1-1.3,0.3c-0.4,0.2-0.7,0.5-0.9,0.8
			c-0.3,0.3-0.4,0.7-0.6,1.2c-0.1,0.4-0.2,0.9-0.2,1.4c0,0.5,0.1,1,0.2,1.4c0.1,0.4,0.3,0.8,0.5,1.1c0.2,0.3,0.5,0.5,0.9,0.7
			c0.4,0.2,0.9,0.2,1.4,0.2c0.4,0,0.7,0,1-0.1c0.3-0.1,0.5-0.2,0.8-0.4c0.2-0.2,0.4-0.4,0.6-0.6c0.2-0.2,0.3-0.5,0.4-0.8
			c0.1-0.3,0.2-0.6,0.2-0.9C89.4,51.1,89.5,50.8,89.5,50.5z"/>
	</g>
	<g>
		<path class="st5" d="M34.8,10.5c0-4.4,3.8-7.9,8.1-8.1c0.2,2.7,0.1,5.4,0.1,8.1C40.2,10.5,37.5,10.5,34.8,10.5z"/>
		<path class="st5" d="M34.8,18.6c2.7,0,5.4,0,8.1,0c-0.1,3.7,0.2,7.3-0.2,11c-0.9,5.5-5.8,10.1-11.4,10.5c-3.6,0.2-7.2,0-10.9,0.1
			c0-2.7,0-5.3,0-8c3-0.1,6,0.1,9,0c2.7,0,5.1-2.3,5.3-4.9C35,24.3,34.7,21.5,34.8,18.6z"/>
		<path class="st5" d="M4.4,40.2c-0.2-4.3,3.7-8.1,8-8.1c0,2.7,0,5.4,0,8C9.7,40.1,7.1,40.1,4.4,40.2z"/>
		<g>
			<path class="st5" d="M13.2,18.9c1.7-4.6,6.1-8,11-8.3c3.5-0.2,7.1,0,10.6-0.1c0,2.7,0,5.4,0,8.1c-3.1,0.1-6.2-0.1-9.3,0.1
				c-2.5,0.2-4.7,2.4-4.9,4.9c-0.2,2.8,0,5.7-0.1,8.5c-2.7,0-5.4,0-8.1,0C12.7,27.7,11.7,23.2,13.2,18.9z"/>
			<path class="st5" d="M42.9,10.5c2.7,0,5.4,0,8.1,0c0,4.3-3.8,8.1-8.1,8.1C42.9,15.9,42.9,13.2,42.9,10.5z"/>
			<path class="st5" d="M12.4,40.1c2.7,0,5.4,0,8.1,0c-0.1,3.1,0.1,6.3-0.1,9.4c-0.5,3.9-4.2,6.7-7.9,6.8
				C12.4,50.9,12.4,45.5,12.4,40.1z"/>
		</g>
		<path class="st5" d="M34.8,10.5c2.7,0,5.4,0,8.2,0c0,2.7,0,5.4,0,8.1c-2.7-0.1-5.4,0-8.1,0C34.7,15.9,34.7,13.2,34.8,10.5z"/>
		<path class="st5" d="M12.4,32.1c2.7,0.1,5.4,0,8.1,0c0,2.7,0,5.3,0,8c-2.7,0-5.4,0-8.1,0C12.3,37.5,12.3,34.8,12.4,32.1z"/>
	</g>
</g>
<g>
	<g>
		<g>
			<path class="st1" d="M620.7,22.8v10h-4.2V10.3h4.2v8.4h8.4v-8.4h4.2v22.6H629v-10H620.7z"/>
			<path class="st1" d="M643.9,32.8c-2.3,0-4.3-0.8-5.9-2.5c-1.6-1.6-2.5-3.6-2.5-5.9s0.8-4.3,2.4-5.9c1.6-1.6,3.6-2.4,5.9-2.4
				s4.3,0.8,5.9,2.4c1.2,1.2,2,2.7,2.3,4.3l-4,2v0l-6.5,3.1c0.5,0.3,1,0.6,1.5,0.7v0c0.3,0.1,0.6,0.1,0.9,0.1c1.2,0,2.6-0.5,4.2-1.5
				l1.7,3.8C647.7,32.2,645.7,32.8,643.9,32.8z M646.6,21.3c-0.9-0.7-1.8-1-2.7-1c-1.2,0-2.1,0.4-3,1.2c-0.6,0.6-0.9,1.5-0.9,2.8
				v0.1L646.6,21.3z"/>
			<path class="st1" d="M666.4,31.3c-1.2,1-2.6,1.5-4.2,1.5c-2.3,0-4.3-0.8-5.9-2.4c-1.6-1.6-2.4-3.6-2.4-5.9s0.8-4.3,2.4-5.9
				c1.6-1.6,3.6-2.4,5.9-2.4s5.1,1.1,8.4,3.3v13.4h-4.2V31.3z M665.2,27.4c0.8-0.8,1.2-1.8,1.2-3v-2.7c-1.6-1-3-1.5-4.2-1.5
				c-1.2,0-2.1,0.4-3,1.2c-0.8,0.8-1.2,1.8-1.2,3c0,1.2,0.4,2.1,1.2,3c0.8,0.8,1.8,1.2,3,1.2C663.4,28.7,664.4,28.2,665.2,27.4z"/>
			<path class="st1" d="M677.1,10.3l0,22.6h-4.2l0-22.6H677.1z"/>
			<path class="st1" d="M684.5,20.3l0,6.9c1.2,1,2.9,1.5,5,1.5v4.2c-3.9,0-7-1.1-9.2-3.3l0-9.2h-0.8v-4.2h0.8v-5.8h4.2v5.8h5v4.2
				H684.5z"/>
			<path class="st1" d="M696.1,17.3c1.1-0.8,2.2-1.2,3.3-1.2c2.3,0,4.1,0.7,5.5,2.1c1.3,1.4,2,3.2,2,5.6l0,9.1l-4.1,0l0-9.1
				c0-1.2-0.3-2.1-0.8-2.6c-0.5-0.5-1.4-0.8-2.5-0.8c-1,0-2.1,0.5-3.3,1.5v11h-4.2l0-22.5h4.2L696.1,17.3z"/>
			<path class="st1" d="M729.4,32.8H729c-3.2,0-6-1.1-8.3-3.4c-2.3-2.3-3.4-5-3.4-8.3c0-3.2,1.1-6,3.4-8.3c2.3-2.3,5-3.4,8.3-3.4
				c3.2,0,6,1.1,8.3,3.4c2.3,2.3,3.4,5,3.4,8.3c0,3.2-1.1,6-3.4,8.3c-0.4,0.4-0.9,0.8-1.4,1.2l3.5,1.7l-1.9,3.8l-5.6-2.7
				C731.1,33.1,730.3,32.9,729.4,32.8z M729,13.7c-2.1,0-3.8,0.7-5.3,2.2c-1.5,1.5-2.2,3.2-2.2,5.3c0,2.1,0.7,3.8,2.2,5.3
				c1.4,1.4,3.2,2.1,5.2,2.1h0.3c2,0,3.7-0.7,5.1-2.1c1.5-1.5,2.2-3.2,2.2-5.3c0-2.1-0.7-3.8-2.2-5.3C732.8,14.4,731,13.7,729,13.7z
				"/>
			<path class="st1" d="M747.3,25.2L747.3,25.2c0,1.3,0.3,2.1,0.8,2.7c0.5,0.5,1.4,0.8,2.5,0.8c1,0,2.1-0.5,3.3-1.5l0-11h4.2l0,13.4
				c-2.2,2.2-4.8,3.3-7.6,3.3c-2.3,0-4.1-0.7-5.5-2.1s-2-3.2-2-5.6v-9h4.1V25.2z"/>
			<path class="st1" d="M768.8,32.8c-2.3,0-4.3-0.8-5.9-2.5c-1.6-1.6-2.5-3.6-2.5-5.9s0.8-4.3,2.4-5.9c1.6-1.6,3.6-2.4,5.9-2.4
				s4.3,0.8,5.9,2.4c1.2,1.2,2,2.7,2.3,4.3l-4,2v0l-6.5,3.1c0.5,0.3,1,0.6,1.5,0.7v0c0.3,0.1,0.6,0.1,0.9,0.1c1.2,0,2.6-0.5,4.2-1.5
				l1.7,3.8C772.6,32.2,770.6,32.8,768.8,32.8z M771.5,21.3c-0.9-0.7-1.8-1-2.7-1c-1.2,0-2.1,0.4-3,1.2c-0.6,0.6-0.9,1.5-0.9,2.8
				v0.1L771.5,21.3z"/>
			<path class="st1" d="M786,26.9c-0.7-0.3-1.9-0.7-3.8-1.2c-0.7-0.2-1.3-0.6-1.9-1.2c-1-1-1.5-2.1-1.5-3.5c0-1.3,0.5-2.5,1.5-3.5
				c1-1,2.3-1.5,3.9-1.7c0.4,0,0.8-0.1,1.2-0.1c1.4,0,2.9,0.2,4.6,0.7l-0.9,4c-1.4-0.5-2.5-0.7-3.4-0.7h-0.1c-1,0-1.7,0.1-2.1,0.4
				c-0.4,0.2-0.6,0.5-0.6,0.9v0.1c0,0.3,0.2,0.5,0.6,0.7c0.7,0.3,1.9,0.7,3.7,1.1c0.7,0.2,1.3,0.6,1.8,1.2c1,1,1.5,2.1,1.5,3.5
				c0,1.4-0.5,2.5-1.5,3.5c-1,0.9-2.3,1.5-3.9,1.7c-0.3,0-0.7,0.1-1,0.1c-1.5,0-3.4-0.3-5.6-1l1-3.9c1.9,0.7,3.4,1,4.3,1h0.3
				c0.7,0,1.3-0.1,1.6-0.4c0.4-0.3,0.6-0.6,0.6-1v-0.1C786.4,27.2,786.3,27,786,26.9z"/>
			<path class="st1" d="M797.4,20.3l0,6.9c1.2,1,2.9,1.5,5,1.5v4.2c-3.9,0-7-1.1-9.2-3.3l0-9.2h-0.8v-4.2h0.8v-5.8h4.2v5.8h5v4.2
				H797.4z"/>
		</g>
	</g>
	<g>
		<g>
			<path class="st6" d="M664.6,66.8V42.5h4.6c0.7,0,1.5,0,2.3,0c0.8,0,1.6,0.1,2.4,0.2c0.8,0.1,1.6,0.3,2.3,0.5
				c0.7,0.2,1.4,0.6,1.9,1c0.6,0.4,1,1,1.3,1.6c0.3,0.7,0.5,1.5,0.5,2.4c0,0.8-0.1,1.5-0.4,2.1c-0.3,0.7-0.7,1.2-1.2,1.7
				c-0.5,0.5-1.1,0.9-1.7,1.3c-0.7,0.3-1.4,0.6-2.2,0.7c1,0,1.9,0.2,2.7,0.5c0.8,0.3,1.5,0.7,2.1,1.2c0.6,0.5,1,1.2,1.4,1.9
				c0.3,0.7,0.5,1.6,0.5,2.5c0,0.9-0.2,1.7-0.5,2.5s-0.8,1.5-1.5,2.1s-1.5,1.1-2.5,1.5c-1,0.4-2.1,0.5-3.5,0.5H664.6z M666.8,55.1
				v9.8h5.3c2.2,0,3.8-0.4,5-1.2c1.2-0.8,1.8-2,1.8-3.6c0-1-0.2-1.8-0.5-2.4s-0.8-1.2-1.5-1.6s-1.5-0.7-2.5-0.8
				c-1-0.2-2.1-0.2-3.4-0.2H666.8z M666.8,53.2h3.7c0.9,0,1.7-0.1,2.6-0.2c0.9-0.1,1.6-0.4,2.3-0.7c0.7-0.3,1.2-0.8,1.6-1.4
				c0.4-0.6,0.6-1.3,0.6-2.2c0-0.9-0.2-1.6-0.5-2.2c-0.4-0.6-0.9-1-1.5-1.3c-0.6-0.3-1.4-0.5-2.2-0.6c-0.8-0.1-1.8-0.2-2.7-0.2h-3.9
				V53.2z"/>
			<path class="st6" d="M686.7,49.6h2.1v17.1h-2.1V49.6z M688.7,42.1v2.1h-1.9v-2.1H688.7z"/>
			<path class="st6" d="M697.1,41.6v25.2H695V41.6H697.1z"/>
			<path class="st6" d="M705.5,41.6v25.2h-2.1V41.6H705.5z"/>
			<path class="st6" d="M711.9,49.6h2.1v17.1h-2.1V49.6z M713.9,42.1v2.1H712v-2.1H713.9z"/>
			<path class="st6" d="M722.3,66.8h-2.1V53.6l-0.2-4h2.2l0.1,3.4c1.3-2.5,3.5-3.8,6.3-3.8c0.8,0,1.6,0.1,2.2,0.3
				c0.6,0.2,1.2,0.5,1.6,0.8s0.8,0.8,1.1,1.2c0.3,0.5,0.5,1,0.7,1.5c0.2,0.5,0.3,1.1,0.3,1.7c0.1,0.6,0.1,1.2,0.1,1.7
				c0,0.3,0,0.9,0,1.7c0,0.8,0,1.8,0,3v5.6h-2.1v-9.1c0-0.6,0-1.1,0-1.4c0-0.3,0-0.6,0-0.7c-0.1-1.6-0.5-2.8-1.3-3.6
				s-1.9-1.2-3.2-1.2c-0.6,0-1.2,0.1-1.7,0.2c-0.5,0.2-1,0.4-1.4,0.6s-0.8,0.6-1.1,0.9c-0.3,0.3-0.6,0.7-0.9,1.1
				c-0.2,0.4-0.4,0.7-0.5,1.1c-0.1,0.3-0.2,0.7-0.2,0.9V66.8z"/>
			<path class="st6" d="M753.5,49.6h2.1v4.1v10.8c0,0.8-0.1,1.6-0.2,2.4s-0.3,1.5-0.5,2.2c-0.2,0.7-0.5,1.4-0.9,2
				c-0.4,0.6-0.9,1.1-1.6,1.6s-1.4,0.8-2.4,1.1c-0.9,0.3-2,0.4-3.3,0.4c-1.1,0-2.1-0.1-3.1-0.3c-1-0.2-1.9-0.5-2.7-1l0.2-1.9
				c0.8,0.5,1.7,0.8,2.6,1c0.9,0.2,1.9,0.3,2.9,0.3c2.2,0,3.8-0.5,5-1.5c1.2-1,1.8-2.5,1.8-4.6l0.1-3.6c-0.6,1.4-1.5,2.5-2.7,3.2
				c-1.1,0.7-2.4,1-3.9,1c-1.2,0-2.3-0.2-3.2-0.6s-1.7-1-2.4-1.7c-0.7-0.7-1.2-1.6-1.5-2.7c-0.3-1-0.5-2.2-0.5-3.5
				c0-1.2,0.2-2.4,0.5-3.5c0.3-1.1,0.8-2.1,1.5-2.9c0.7-0.8,1.5-1.5,2.5-2c1-0.5,2.1-0.7,3.5-0.7c0.7,0,1.4,0.1,2,0.3
				s1.2,0.4,1.7,0.8c0.5,0.3,1,0.7,1.4,1.2c0.4,0.5,0.8,1,1.1,1.5L753.5,49.6z M753.4,57.6c0-0.9-0.1-1.8-0.4-2.6
				c-0.3-0.8-0.7-1.5-1.2-2.1c-0.5-0.6-1.1-1.1-1.9-1.4c-0.7-0.4-1.6-0.5-2.5-0.5c-1,0-1.9,0.2-2.6,0.6c-0.8,0.4-1.4,0.9-1.9,1.6
				c-0.5,0.7-0.9,1.4-1.1,2.3c-0.3,0.9-0.4,1.8-0.4,2.8c0,1.1,0.1,2,0.3,2.9c0.2,0.8,0.5,1.6,1,2.2s1.1,1.1,1.9,1.4
				c0.8,0.3,1.7,0.5,2.8,0.5c0.7,0,1.4-0.1,2-0.3c0.6-0.2,1.1-0.5,1.5-0.8c0.4-0.3,0.8-0.7,1.1-1.2c0.3-0.5,0.6-1,0.8-1.5
				c0.2-0.6,0.3-1.1,0.4-1.8S753.4,58.2,753.4,57.6z"/>
		</g>
	</g>
	<path class="st1" d="M560.2,87.3c-1-0.1-1.9-0.2-2.9-0.4c-3.1-0.6-4.4-2.3-3.8-5.4c1-4.6,2.3-9.1,3.6-13.6c0.6-2.3,1.2-4.7,2-7
		c0.5-1.4,0.2-2.4-0.9-3.5c-4.4-4.5-8.9-9-13.2-13.6c-1.2-1.3-2.4-1.5-4.1-1.1c-7.1,1.9-14.3,3.7-21.4,5.6c-1.7,0.5-2.8,0.1-4-1.2
		c-4.1-4.3-8.3-8.4-12.4-12.7c-1.1-1.1-2.2-1.7-3.8-1.8c-3.9-0.1-6.6-3.1-6.4-6.8c0.2-3.4,2.9-6,6.4-6c3.9,0,6.3,2.3,6.4,6.4
		c0,1.2,0.3,2.2,1.2,3c3.6,3.6,7.2,7.2,10.8,10.9c1.1,1.2,2.2,1.6,3.9,1.1c6.1-1.7,12.2-3.2,18.4-4.8c1.5-0.4,2.2-1.1,2.6-2.5
		c1.6-6,3.3-12.1,5-18.1c0.5-1.7,0.2-2.9-1-4.1c-4.4-4.4-8.6-8.8-12.9-13.2c-1-1-2-1.4-3.4-1c-5,1.4-10,2.7-15.1,4
		c-1.3,0.3-2.3,0.9-3.1,2.1c-2.1,3-6,3.7-8.8,1.9c-3-2-3.8-5.8-2-8.8c1.8-3,5.4-4,8.7-2.2c1.2,0.6,2.2,0.8,3.4,0.5
		c4.9-1.3,9.9-2.7,14.8-3.9c1.6-0.4,2.4-1.2,2.9-2.8c1.9-7.1,3.9-14.1,5.8-21.1c0.4-1.7,1.2-2.6,3-3c8.3-2,16.7-4.2,25-6.4
		c1.7-0.4,2.8-0.2,4.1,1.1c5.9,6.1,11.9,12.2,18,18.2c1.3,1.3,1.7,2.5,1.2,4.3c-2.4,8.3-4.7,16.7-7,25.1c-0.4,1.6-1.2,2.3-2.7,2.6
		c-6,1.5-11.9,3.1-17.9,4.6c-1.8,0.5-2.5,0.8-0.8,2.5c3,2.9,5.5,6.5,8.9,8.9c3,2.2,7,3.3,10.8,2.9c3.8-0.3,7.5-1.8,11.3-2.7
		c1.3-0.3,2.1-0.9,2.8-2c1.9-3.3,5.8-4.2,8.8-2.4c3,1.8,4.1,5.7,2.4,8.7c-1.8,3.1-5.5,4.2-8.8,2.4c-1.3-0.7-2.5-0.9-3.9-0.5
		c-2.7,0.8-5.5,1.4-8.2,2.1c-2.7,0.7-5.3,1.1-7.2,3.9c-1.4,2.1-4.1,2.5-6.6,1.6c-2.5-0.9-4.1-2.8-4.2-5.4c-0.1-1.7-0.7-2.9-1.9-4
		c-2.9-2.9-5.6-5.8-8.5-8.7c-1.9-1.9-2-1.9-2.7,0.5c-1.4,4.8-2.6,9.5-4,14.3c-0.5,1.5-0.1,2.6,1,3.7c5.3,5.3,10.4,10.7,15.7,16
		c1.3,1.3,1.5,2.4,1,4.1c-1.8,6.3-3.6,12.6-5.3,19c-0.3,1.2-0.8,2.5,1.3,2.4c2,0,3.3,0.9,3.4,3c0,2.3-1.5,3-3.5,3.3
		c-0.6,0.1-1.1,0-1.7,0C560.2,87.2,560.2,87.2,560.2,87.3z M553.1,9c0.2-0.1,0.5-0.1,0.7-0.2c6.4-1.7,12.9-3.3,19.3-5
		c1.4-0.4,2.1-1.2,2.5-2.6c1.6-6,3.3-12.1,5-18c0.5-1.7,0.2-2.8-1-4.1c-4.5-4.4-8.9-9-13.3-13.5c-1-1-1.9-1.2-3.3-0.9
		c-6.2,1.6-12.4,3.3-18.6,4.8c-1.6,0.4-2.4,1.3-2.8,2.9c-1.6,6-3.2,12.1-5,18.1c-0.4,1.4-0.2,2.4,0.9,3.5c4.6,4.6,9.1,9.3,13.6,13.9
		C551.7,8.4,552.2,9.1,553.1,9z M571.6,36.5c1.9,0,3.6-1.5,3.7-3.4c0.1-1.8-1.6-3.6-3.5-3.7c-2.1-0.1-3.5,1.2-3.6,3.4
		C568.2,35,569.5,36.4,571.6,36.5z M598.3,30c1.9,0.2,3.7-1.3,3.9-3.2c0.2-2-1.2-3.7-3.2-3.8c-2-0.2-3.7,1.2-3.9,3.1
		C595,28.1,596.4,29.8,598.3,30z M499.1,22.6c-1.9,0.1-3.4,1.8-3.3,3.8c0.1,2.1,1.5,3.4,3.7,3.3c1.9-0.1,3.4-1.6,3.4-3.4
		C502.8,24.5,500.9,22.6,499.1,22.6z M506.5,3.8c1.7,0,3.6-1.8,3.6-3.6c0-1.9-1.6-3.5-3.6-3.5c-2.1,0-3.5,1.3-3.5,3.4
		C503,2.1,504.6,3.8,506.5,3.8z"/>
	<path class="st0" d="M529.2,96.4c-1.4,0.1-2.1-0.5-2.7-1.1c-6.2-6.3-12.3-12.6-18.5-19c-1-1-1.1-2-0.8-3.3
		c1.6-5.8,3.2-11.6,4.8-17.3c0.5-1.9,1.6-3.2,3.8-2.8c1.9,0.4,2.7,2,2,4.5c-1.2,4.5-2.4,8.9-3.7,13.3c-0.5,1.5-0.4,2.8,0.8,4
		c4.3,4.4,8.6,8.8,12.8,13.3c1.5,1.6,3,1.9,5,1.3c3.7-1.1,7.5-2,11.3-3c0.9-0.2,1.9-0.5,2.9-0.6c1.9-0.2,3.2,0.5,3.6,2.5
		c0.3,1.8-0.8,2.9-2.5,3.3c-5.1,1.3-10.2,2.6-15.3,4C531.4,95.8,530.1,96.2,529.2,96.4z"/>
	<path class="st0" d="M540.7-9.4c0.2,0.2,0.7,0.4,1,0.7c3.9,4,7.8,8,11.7,12c0.5,0.5,1.5,1.3,0.8,2c-0.9,1-1.6-0.2-2.1-0.8
		c-3.8-3.8-7.7-7.7-11.5-11.5c-0.5-0.5-1.1-1-0.8-1.9C539.8-9.3,540.1-9.4,540.7-9.4z"/>
	<path class="st0" d="M546.3-26c-0.9,0.1-1.5,0-1.5-0.7c-0.1-0.8,0.7-1.1,1.3-1.2c3.3-0.9,6.6-1.7,9.8-2.6c2.3-0.6,4.7-1.2,7.1-1.8
		c0.6-0.1,1.2-0.2,1.5,0.5c0.3,0.7-0.2,1.1-0.8,1.2C557.8-29,551.9-27.5,546.3-26z"/>
	<path class="st0" d="M577.7-16.7c-1.5,5.3-3,10.8-4.6,16.4c-0.2,0.6-0.4,1.4-1.3,1.1c-0.8-0.2-0.7-1-0.5-1.7c1.1-4,2.2-8,3.3-12
		c0.4-1.6,0.9-3.1,1.3-4.7c0.2-0.5,0.5-1.1,1.2-1C578-18.4,577.9-17.7,577.7-16.7z"/>
</g>
<image style="overflow:visible;" width="1147" height="1147" xlink:href="2EB660A7.jpg"  transform="matrix(1 0 0 1 -1961.1875 -684.0347)">
</image>
<polygon class="st7" points="-1208.8,-396.6 -1101,-503.7 -1208.4,-503.7 "/>
<polygon class="st7" points="-1099.9,-397.3 -1207.8,-290.1 -1100.3,-290.1 "/>
<polygon class="st7" points="-992.4,-397.3 -1100.3,-290.1 -992.8,-290.1 "/>
</svg>
